<svg width="20" height="21" viewBox="0 0 20 21" fill="none" xmlns="http://www.w3.org/2000/svg">
<path d="M9 16.0336C10.9333 16.0336 12.5833 15.353 13.95 13.9918C15.3167 12.6306 16 10.973 16 9.01889C16 7.0815 15.3167 5.42803 13.95 4.0585C12.5833 2.68897 10.9333 2.0042 9 2.0042C7.05 2.0042 5.39583 2.68897 4.0375 4.0585C2.67917 5.42803 2 7.0815 2 9.01889C2 10.973 2.67917 12.6306 4.0375 13.9918C5.39583 15.353 7.05 16.0336 9 16.0336ZM9 18.0378C7.75 18.0378 6.57917 17.7998 5.4875 17.3238C4.39583 16.8478 3.44583 16.2048 2.6375 15.3947C1.82917 14.5847 1.1875 13.6327 0.7125 12.5388C0.2375 11.4448 0 10.2715 0 9.01889C0 7.78297 0.2375 6.61803 0.7125 5.52407C1.1875 4.43011 1.82917 3.47394 2.6375 2.65556C3.44583 1.83718 4.39583 1.18999 5.4875 0.713995C6.57917 0.237998 7.75 0 9 0C10.2333 0 11.3958 0.237998 12.4875 0.713995C13.5792 1.18999 14.5333 1.83718 15.35 2.65556C16.1667 3.47394 16.8125 4.43011 17.2875 5.52407C17.7625 6.61803 18 7.78297 18 9.01889C18 10.0878 17.825 11.0982 17.475 12.0502C17.125 13.0022 16.6417 13.8707 16.025 14.6557L20 18.639L18.575 20.042L14.6 16.0837C13.8167 16.7016 12.95 17.1818 12 17.5242C11.05 17.8666 10.05 18.0378 9 18.0378Z" fill="#999999"/>
</svg>
